<mxfile host="app.diagrams.net" agent="Mozilla/5.0 (Windows NT 10.0; Win64; x64) AppleWebKit/537.36 (KHTML, like Gecko) Chrome/136.0.0.0 Safari/537.36 Edg/136.0.0.0" version="27.0.9">
  <diagram name="Page-1" id="hTJL4Bhcd8wwfQDs9Rlv">
    <mxGraphModel dx="3151" dy="2940" grid="1" gridSize="10" guides="1" tooltips="1" connect="1" arrows="1" fold="1" page="1" pageScale="1" pageWidth="850" pageHeight="1100" math="0" shadow="0">
      <root>
        <mxCell id="0" />
        <mxCell id="1" parent="0" />
        <mxCell id="j54dnr50K_vrxk6pQP5S-17" style="edgeStyle=orthogonalEdgeStyle;rounded=0;orthogonalLoop=1;jettySize=auto;html=1;entryX=0;entryY=0.5;entryDx=0;entryDy=0;" parent="1" source="j54dnr50K_vrxk6pQP5S-1" target="j54dnr50K_vrxk6pQP5S-6" edge="1">
          <mxGeometry relative="1" as="geometry" />
        </mxCell>
        <mxCell id="j54dnr50K_vrxk6pQP5S-18" style="edgeStyle=orthogonalEdgeStyle;rounded=0;orthogonalLoop=1;jettySize=auto;html=1;entryX=0;entryY=0.5;entryDx=0;entryDy=0;" parent="1" source="j54dnr50K_vrxk6pQP5S-1" target="j54dnr50K_vrxk6pQP5S-8" edge="1">
          <mxGeometry relative="1" as="geometry" />
        </mxCell>
        <mxCell id="j54dnr50K_vrxk6pQP5S-19" style="edgeStyle=orthogonalEdgeStyle;rounded=0;orthogonalLoop=1;jettySize=auto;html=1;entryX=0;entryY=0.5;entryDx=0;entryDy=0;" parent="1" source="j54dnr50K_vrxk6pQP5S-1" target="j54dnr50K_vrxk6pQP5S-4" edge="1">
          <mxGeometry relative="1" as="geometry" />
        </mxCell>
        <mxCell id="j54dnr50K_vrxk6pQP5S-1" value="Inicio" style="rounded=0;whiteSpace=wrap;html=1;" parent="1" vertex="1">
          <mxGeometry x="310" y="350" width="120" height="60" as="geometry" />
        </mxCell>
        <mxCell id="j54dnr50K_vrxk6pQP5S-22" style="edgeStyle=orthogonalEdgeStyle;rounded=0;orthogonalLoop=1;jettySize=auto;html=1;entryX=0;entryY=0.5;entryDx=0;entryDy=0;" parent="1" source="j54dnr50K_vrxk6pQP5S-2" target="j54dnr50K_vrxk6pQP5S-10" edge="1">
          <mxGeometry relative="1" as="geometry" />
        </mxCell>
        <mxCell id="j54dnr50K_vrxk6pQP5S-2" value="Ir al sensor tmp" style="rounded=0;whiteSpace=wrap;html=1;" parent="1" vertex="1">
          <mxGeometry x="815" y="250" width="120" height="60" as="geometry" />
        </mxCell>
        <mxCell id="j54dnr50K_vrxk6pQP5S-20" style="edgeStyle=orthogonalEdgeStyle;rounded=0;orthogonalLoop=1;jettySize=auto;html=1;entryX=0;entryY=0.5;entryDx=0;entryDy=0;" parent="1" source="j54dnr50K_vrxk6pQP5S-4" target="j54dnr50K_vrxk6pQP5S-16" edge="1">
          <mxGeometry relative="1" as="geometry" />
        </mxCell>
        <mxCell id="j54dnr50K_vrxk6pQP5S-4" value="Recetario" style="rounded=0;whiteSpace=wrap;html=1;" parent="1" vertex="1">
          <mxGeometry x="495" y="250" width="120" height="60" as="geometry" />
        </mxCell>
        <mxCell id="j54dnr50K_vrxk6pQP5S-32" style="edgeStyle=orthogonalEdgeStyle;rounded=0;orthogonalLoop=1;jettySize=auto;html=1;" parent="1" source="j54dnr50K_vrxk6pQP5S-6" edge="1">
          <mxGeometry relative="1" as="geometry">
            <mxPoint x="305" y="380" as="targetPoint" />
            <Array as="points">
              <mxPoint x="675" y="380" />
              <mxPoint x="675" y="600" />
              <mxPoint x="255" y="600" />
              <mxPoint x="255" y="380" />
            </Array>
          </mxGeometry>
        </mxCell>
        <mxCell id="j54dnr50K_vrxk6pQP5S-6" value="zlink&lt;div&gt;(info del clan)&lt;/div&gt;" style="rounded=0;whiteSpace=wrap;html=1;" parent="1" vertex="1">
          <mxGeometry x="495" y="350" width="120" height="60" as="geometry" />
        </mxCell>
        <mxCell id="j54dnr50K_vrxk6pQP5S-31" style="edgeStyle=orthogonalEdgeStyle;rounded=0;orthogonalLoop=1;jettySize=auto;html=1;entryX=0.5;entryY=1;entryDx=0;entryDy=0;" parent="1" source="j54dnr50K_vrxk6pQP5S-8" target="j54dnr50K_vrxk6pQP5S-1" edge="1">
          <mxGeometry relative="1" as="geometry" />
        </mxCell>
        <mxCell id="j54dnr50K_vrxk6pQP5S-8" value="Info ollas brujas" style="rounded=0;whiteSpace=wrap;html=1;" parent="1" vertex="1">
          <mxGeometry x="495" y="450" width="120" height="60" as="geometry" />
        </mxCell>
        <mxCell id="j54dnr50K_vrxk6pQP5S-24" style="edgeStyle=orthogonalEdgeStyle;rounded=0;orthogonalLoop=1;jettySize=auto;html=1;entryX=0;entryY=0.5;entryDx=0;entryDy=0;" parent="1" source="j54dnr50K_vrxk6pQP5S-10" target="j54dnr50K_vrxk6pQP5S-23" edge="1">
          <mxGeometry relative="1" as="geometry" />
        </mxCell>
        <mxCell id="j54dnr50K_vrxk6pQP5S-10" value="Conectarse a la arduino nano" style="rounded=0;whiteSpace=wrap;html=1;" parent="1" vertex="1">
          <mxGeometry x="975" y="250" width="120" height="60" as="geometry" />
        </mxCell>
        <mxCell id="j54dnr50K_vrxk6pQP5S-21" style="edgeStyle=orthogonalEdgeStyle;rounded=0;orthogonalLoop=1;jettySize=auto;html=1;entryX=0;entryY=0.5;entryDx=0;entryDy=0;" parent="1" source="j54dnr50K_vrxk6pQP5S-16" target="j54dnr50K_vrxk6pQP5S-2" edge="1">
          <mxGeometry relative="1" as="geometry" />
        </mxCell>
        <mxCell id="j54dnr50K_vrxk6pQP5S-16" value="Seleccionar receta&lt;div&gt;&lt;br&gt;&lt;/div&gt;" style="rounded=0;whiteSpace=wrap;html=1;" parent="1" vertex="1">
          <mxGeometry x="655" y="250" width="120" height="60" as="geometry" />
        </mxCell>
        <mxCell id="j54dnr50K_vrxk6pQP5S-26" style="edgeStyle=orthogonalEdgeStyle;rounded=0;orthogonalLoop=1;jettySize=auto;html=1;entryX=0;entryY=0.5;entryDx=0;entryDy=0;" parent="1" source="j54dnr50K_vrxk6pQP5S-23" target="j54dnr50K_vrxk6pQP5S-25" edge="1">
          <mxGeometry relative="1" as="geometry" />
        </mxCell>
        <mxCell id="j54dnr50K_vrxk6pQP5S-23" value="Iniciar cocción&amp;nbsp;" style="rounded=0;whiteSpace=wrap;html=1;" parent="1" vertex="1">
          <mxGeometry x="1135" y="250" width="120" height="60" as="geometry" />
        </mxCell>
        <mxCell id="j54dnr50K_vrxk6pQP5S-29" style="edgeStyle=orthogonalEdgeStyle;rounded=0;orthogonalLoop=1;jettySize=auto;html=1;entryX=0;entryY=0.5;entryDx=0;entryDy=0;" parent="1" source="j54dnr50K_vrxk6pQP5S-25" target="j54dnr50K_vrxk6pQP5S-27" edge="1">
          <mxGeometry relative="1" as="geometry" />
        </mxCell>
        <mxCell id="j54dnr50K_vrxk6pQP5S-25" value="te dice la temperatura&amp;nbsp; y el tiempo estimado.&amp;nbsp;" style="rounded=0;whiteSpace=wrap;html=1;" parent="1" vertex="1">
          <mxGeometry x="1295" y="250" width="120" height="60" as="geometry" />
        </mxCell>
        <mxCell id="j54dnr50K_vrxk6pQP5S-30" style="edgeStyle=orthogonalEdgeStyle;rounded=0;orthogonalLoop=1;jettySize=auto;html=1;entryX=0.5;entryY=0;entryDx=0;entryDy=0;" parent="1" source="j54dnr50K_vrxk6pQP5S-27" target="j54dnr50K_vrxk6pQP5S-1" edge="1">
          <mxGeometry relative="1" as="geometry">
            <Array as="points">
              <mxPoint x="1505" y="130" />
              <mxPoint x="370" y="130" />
            </Array>
          </mxGeometry>
        </mxCell>
        <mxCell id="j54dnr50K_vrxk6pQP5S-27" value="Cuando llega a la temperatura final, notificar.&amp;nbsp;" style="rounded=0;whiteSpace=wrap;html=1;" parent="1" vertex="1">
          <mxGeometry x="1445" y="250" width="120" height="60" as="geometry" />
        </mxCell>
        <mxCell id="j54dnr50K_vrxk6pQP5S-33" value="&lt;span style=&quot;font-size: 50px;&quot;&gt;MVP&lt;/span&gt;" style="text;html=1;align=center;verticalAlign=middle;whiteSpace=wrap;rounded=0;" parent="1" vertex="1">
          <mxGeometry x="390" y="325" width="970" height="110" as="geometry" />
        </mxCell>
        <mxCell id="j54dnr50K_vrxk6pQP5S-34" value="&lt;span style=&quot;font-size: 50px;&quot;&gt;Pre aplicación&lt;/span&gt;" style="text;html=1;align=center;verticalAlign=middle;whiteSpace=wrap;rounded=0;" parent="1" vertex="1">
          <mxGeometry x="165" y="-70" width="970" height="110" as="geometry" />
        </mxCell>
        <mxCell id="j54dnr50K_vrxk6pQP5S-38" style="edgeStyle=orthogonalEdgeStyle;rounded=0;orthogonalLoop=1;jettySize=auto;html=1;entryX=0;entryY=0.5;entryDx=0;entryDy=0;" parent="1" source="j54dnr50K_vrxk6pQP5S-35" target="j54dnr50K_vrxk6pQP5S-37" edge="1">
          <mxGeometry relative="1" as="geometry" />
        </mxCell>
        <mxCell id="j54dnr50K_vrxk6pQP5S-35" value="Inicio" style="rounded=0;whiteSpace=wrap;html=1;" parent="1" vertex="1">
          <mxGeometry x="325" y="40" width="120" height="60" as="geometry" />
        </mxCell>
        <mxCell id="j54dnr50K_vrxk6pQP5S-41" style="edgeStyle=orthogonalEdgeStyle;rounded=0;orthogonalLoop=1;jettySize=auto;html=1;entryX=0;entryY=0.5;entryDx=0;entryDy=0;" parent="1" source="j54dnr50K_vrxk6pQP5S-36" target="j54dnr50K_vrxk6pQP5S-40" edge="1">
          <mxGeometry relative="1" as="geometry" />
        </mxCell>
        <mxCell id="j54dnr50K_vrxk6pQP5S-36" value="te dice la temperatura" style="rounded=0;whiteSpace=wrap;html=1;" parent="1" vertex="1">
          <mxGeometry x="680" y="40" width="140" height="60" as="geometry" />
        </mxCell>
        <mxCell id="j54dnr50K_vrxk6pQP5S-39" style="edgeStyle=orthogonalEdgeStyle;rounded=0;orthogonalLoop=1;jettySize=auto;html=1;entryX=0;entryY=0.5;entryDx=0;entryDy=0;" parent="1" source="j54dnr50K_vrxk6pQP5S-37" target="j54dnr50K_vrxk6pQP5S-36" edge="1">
          <mxGeometry relative="1" as="geometry" />
        </mxCell>
        <mxCell id="j54dnr50K_vrxk6pQP5S-37" value="Conectarse a la arduino nano" style="rounded=0;whiteSpace=wrap;html=1;" parent="1" vertex="1">
          <mxGeometry x="500" y="40" width="120" height="60" as="geometry" />
        </mxCell>
        <mxCell id="j54dnr50K_vrxk6pQP5S-40" value="Notificacípon&lt;div&gt;&lt;br&gt;&lt;/div&gt;" style="rounded=0;whiteSpace=wrap;html=1;" parent="1" vertex="1">
          <mxGeometry x="880" y="40" width="120" height="60" as="geometry" />
        </mxCell>
        <mxCell id="1ONsL4CtrIhtuDFAj038-1" value="&lt;span style=&quot;font-size: 50px;&quot;&gt;Aplicación final&lt;/span&gt;" style="text;html=1;align=center;verticalAlign=middle;whiteSpace=wrap;rounded=0;" vertex="1" parent="1">
          <mxGeometry x="400" y="800" width="970" height="110" as="geometry" />
        </mxCell>
        <mxCell id="1ONsL4CtrIhtuDFAj038-8" style="edgeStyle=orthogonalEdgeStyle;rounded=0;orthogonalLoop=1;jettySize=auto;html=1;" edge="1" parent="1" source="1ONsL4CtrIhtuDFAj038-2" target="1ONsL4CtrIhtuDFAj038-4">
          <mxGeometry relative="1" as="geometry" />
        </mxCell>
        <mxCell id="1ONsL4CtrIhtuDFAj038-9" style="edgeStyle=orthogonalEdgeStyle;rounded=0;orthogonalLoop=1;jettySize=auto;html=1;entryX=0;entryY=0.5;entryDx=0;entryDy=0;" edge="1" parent="1" source="1ONsL4CtrIhtuDFAj038-2" target="1ONsL4CtrIhtuDFAj038-6">
          <mxGeometry relative="1" as="geometry" />
        </mxCell>
        <mxCell id="1ONsL4CtrIhtuDFAj038-10" style="edgeStyle=orthogonalEdgeStyle;rounded=0;orthogonalLoop=1;jettySize=auto;html=1;entryX=0;entryY=0.5;entryDx=0;entryDy=0;" edge="1" parent="1" source="1ONsL4CtrIhtuDFAj038-2" target="1ONsL4CtrIhtuDFAj038-7">
          <mxGeometry relative="1" as="geometry" />
        </mxCell>
        <mxCell id="1ONsL4CtrIhtuDFAj038-11" style="edgeStyle=orthogonalEdgeStyle;rounded=0;orthogonalLoop=1;jettySize=auto;html=1;entryX=0;entryY=0.5;entryDx=0;entryDy=0;" edge="1" parent="1" source="1ONsL4CtrIhtuDFAj038-2" target="1ONsL4CtrIhtuDFAj038-3">
          <mxGeometry relative="1" as="geometry" />
        </mxCell>
        <mxCell id="1ONsL4CtrIhtuDFAj038-12" style="edgeStyle=orthogonalEdgeStyle;rounded=0;orthogonalLoop=1;jettySize=auto;html=1;entryX=0;entryY=0.5;entryDx=0;entryDy=0;" edge="1" parent="1" source="1ONsL4CtrIhtuDFAj038-2" target="1ONsL4CtrIhtuDFAj038-5">
          <mxGeometry relative="1" as="geometry" />
        </mxCell>
        <mxCell id="1ONsL4CtrIhtuDFAj038-2" value="Inicio" style="rounded=0;whiteSpace=wrap;html=1;" vertex="1" parent="1">
          <mxGeometry x="310" y="830" width="120" height="60" as="geometry" />
        </mxCell>
        <mxCell id="1ONsL4CtrIhtuDFAj038-3" value="zlink&lt;div&gt;(info del clan)&lt;/div&gt;" style="rounded=0;whiteSpace=wrap;html=1;" vertex="1" parent="1">
          <mxGeometry x="510" y="740" width="120" height="60" as="geometry" />
        </mxCell>
        <mxCell id="1ONsL4CtrIhtuDFAj038-4" value="Info ollas brujas" style="rounded=0;whiteSpace=wrap;html=1;" vertex="1" parent="1">
          <mxGeometry x="510" y="830" width="120" height="60" as="geometry" />
        </mxCell>
        <mxCell id="1ONsL4CtrIhtuDFAj038-15" style="edgeStyle=orthogonalEdgeStyle;rounded=0;orthogonalLoop=1;jettySize=auto;html=1;entryX=0;entryY=0.5;entryDx=0;entryDy=0;" edge="1" parent="1" source="1ONsL4CtrIhtuDFAj038-5" target="1ONsL4CtrIhtuDFAj038-13">
          <mxGeometry relative="1" as="geometry" />
        </mxCell>
        <mxCell id="1ONsL4CtrIhtuDFAj038-5" value="Recetario&amp;nbsp;&lt;div&gt;(lista de recetas)&lt;/div&gt;" style="rounded=0;whiteSpace=wrap;html=1;" vertex="1" parent="1">
          <mxGeometry x="510" y="650" width="120" height="60" as="geometry" />
        </mxCell>
        <mxCell id="1ONsL4CtrIhtuDFAj038-6" value="Monitor de temperatura" style="rounded=0;whiteSpace=wrap;html=1;" vertex="1" parent="1">
          <mxGeometry x="510" y="930" width="120" height="60" as="geometry" />
        </mxCell>
        <mxCell id="1ONsL4CtrIhtuDFAj038-7" value="Escaner bluetooth" style="rounded=0;whiteSpace=wrap;html=1;" vertex="1" parent="1">
          <mxGeometry x="510" y="1020" width="120" height="60" as="geometry" />
        </mxCell>
        <mxCell id="1ONsL4CtrIhtuDFAj038-16" style="edgeStyle=orthogonalEdgeStyle;rounded=0;orthogonalLoop=1;jettySize=auto;html=1;entryX=0;entryY=0.5;entryDx=0;entryDy=0;" edge="1" parent="1" source="1ONsL4CtrIhtuDFAj038-13" target="1ONsL4CtrIhtuDFAj038-14">
          <mxGeometry relative="1" as="geometry" />
        </mxCell>
        <mxCell id="1ONsL4CtrIhtuDFAj038-13" value="Receta seleccionada&amp;nbsp;&lt;br&gt;(muesta la reseta)" style="rounded=0;whiteSpace=wrap;html=1;" vertex="1" parent="1">
          <mxGeometry x="665" y="650" width="120" height="60" as="geometry" />
        </mxCell>
        <mxCell id="1ONsL4CtrIhtuDFAj038-14" value="Empezar a cocinar&amp;nbsp;" style="rounded=0;whiteSpace=wrap;html=1;" vertex="1" parent="1">
          <mxGeometry x="815" y="650" width="120" height="60" as="geometry" />
        </mxCell>
      </root>
    </mxGraphModel>
  </diagram>
</mxfile>
